<?xml version="1.0" encoding="utf-8" ?><svg xmlns="http://www.w3.org/2000/svg" xmlns:xlink="http://www.w3.org/1999/xlink" width="1024" height="1024" viewBox="0 0 1024 1024"><path fill="#FFFFFF" d="M373.708 260.402C381.248 260.33 386.142 268.051 390.937 273.294L406.279 289.844L476.091 364.346C484.676 373.418 496.227 386.91 505.177 394.71C514.351 402.705 542.539 394.491 553.128 399.753C557.321 401.836 559.74 417.01 560.932 422.254C553.417 430.073 545.385 438.06 538.133 446.061C524.124 431.196 510.208 416.244 496.386 401.206C487.621 392.185 476.609 380.342 468.305 370.929C445.239 344.777 444.825 354.39 423.032 375.067C423.057 369.179 423.046 363.29 422.998 357.402C419.97 354.034 416.161 350.331 412.984 346.908L413.099 385.963C409.304 391.288 399.469 400.749 394.594 405.665C385.616 414.567 376.895 423.725 368.44 433.125C368.578 395.882 368.493 358.638 368.185 321.395C368.104 304.95 367.851 288.479 368.405 272.038C368.496 269.352 368.624 266.696 368.994 264.03C370.501 262.605 372.023 261.601 373.708 260.402Z"/><path fill="#FFFFFF" d="M313.877 621.49C314.107 612.389 315.761 600.681 330.034 608.267C332.669 609.667 333.072 615.891 333.153 618.921C333.56 634.076 333.088 649.465 333.278 664.644C333.358 677.388 333.377 689.985 332.985 702.712C332.614 714.753 321.433 715.284 314.626 707.776C313.979 703.851 314.058 699.534 314.01 695.526L310.397 699.558C303.496 706.031 296.096 710.214 286.684 711.708C220.131 722.272 206.91 616.973 272.645 606.172C292.736 605.466 298.832 608.849 313.877 621.49ZM285.635 694.455C295.238 692.679 301.625 689.777 307.458 681.488C322.92 659.518 310.202 618.648 278.656 624.144C232.309 631.759 244.153 699.444 285.635 694.455Z"/><path fill="#FFFFFF" d="M574.529 606.716C603.617 602.887 630.293 623.384 634.085 652.477C637.877 681.569 617.346 708.22 588.249 711.975C559.203 715.724 532.61 695.237 528.825 666.196C525.04 637.156 545.493 610.537 574.529 606.716ZM586.629 693.923C628.257 683.583 621.737 621.743 575.946 624.59C532.018 634.87 545.376 700.969 586.629 693.923Z"/><path fill="#FFFFFF" d="M138.344 650.386C154.808 626.111 168.929 599.625 186.059 575.67C191.82 567.614 202.715 566.645 205.796 575.603C206.827 578.603 206.356 593.224 206.365 596.982L206.411 634.082L206.363 680.961C206.343 688.935 206.431 696.84 206.121 704.818C205.729 714.928 188.701 714.159 187.673 706.164C186.665 698.33 187.009 688.725 186.996 680.664L186.827 635.526C186.166 628.477 186.533 616.722 186.569 609.307C175.41 625.314 165.483 642.594 154.609 658.821C151.716 663.139 147.402 670.927 143.502 674.026C133.762 681.768 125.619 665.163 121.413 658.701C118.405 653.968 115.758 649.506 112.925 644.954C105.321 632.857 97.5243 620.881 89.5386 609.032C89.8635 631.121 89.4852 653.255 89.3616 675.347C89.3146 683.753 90.2629 694.824 89.3478 702.848C89.0389 705.557 87.8943 709.329 85.5232 710.937C83.2153 712.503 78.3488 712.697 75.7486 711.899C73.6539 711.257 71.7346 709.808 70.7553 707.819C69.5808 705.434 69.6493 701.437 69.5984 698.807C69.375 687.243 69.2543 577.737 70.3001 574.776C71.2585 572.063 73.9351 570.807 76.3567 569.664C80.1198 569.406 85.6708 568.989 88.0867 572.368C94.4343 581.246 100.309 591.111 106.109 600.336C116.662 617.142 127.408 633.827 138.344 650.386Z"/><path fill="#FFFFFF" d="M667.04 290.957C685.342 284.532 704.346 279.345 722.801 273.299C726.613 272.05 730.723 270.773 734.621 269.867C727.433 293.068 722.093 317.614 715.038 339.899L699.967 324.746L591.787 437.427L554.942 475.602C549.073 481.727 542.403 488.341 536.875 494.647C531.51 489.412 524.836 482.992 519.942 477.361C525.382 472.747 532.31 465.941 536.93 460.696C548.477 448.041 561.713 435.478 573.626 423.028C583.984 412.203 594.366 401.349 604.759 390.564L660.034 333.22C667.952 325.015 675.766 316.412 683.828 308.42C679.257 303.293 670.735 295.528 667.04 290.957Z"/><path fill="#38BDF8" d="M315.802 535.462C309.501 535.678 294.997 537.14 294.767 528.033C294.636 522.848 304.37 514.394 308.01 510.672C315.046 503.524 322.024 496.32 328.944 489.06L423.45 390.249C426.381 387.177 441.933 370.587 444.436 369.388C445.412 368.913 446.488 368.679 447.573 368.708C448.464 368.723 450.545 368.941 451.183 369.575C480.773 398.917 507.65 431.098 536.93 460.696C532.31 465.941 525.382 472.747 519.942 477.361C517.831 474.877 515.334 472.365 513.086 469.984C490.989 446.574 469.819 422.455 447.475 399.265C435.446 410.31 421.812 425.345 410.225 437.402L349.946 500.151C340.161 510.421 325.886 526.529 315.802 535.462Z"/><path fill="#FFFFFF" d="M696.264 568.706C711.489 567.219 731.205 572.924 743.285 583.055C747.417 586.87 749.392 593.408 744.507 597.543C736.018 604.729 725.998 594.597 718.046 591.092C706 585.782 686.961 585.017 677.023 594.802C673.233 598.465 671.144 603.543 671.26 608.812C671.526 621.956 685.784 625.546 696.227 628.015C721.444 633.977 750.611 638.815 750.465 670.984C750.322 702.635 725.347 712.654 697.46 712.435C694.445 712.152 690.967 711.784 687.997 711.506C677.73 710.546 649.683 700.083 648.808 687.715C648.622 685.18 649.546 682.689 651.34 680.888C659.761 672.281 670.857 685.905 679.589 689.489C692.226 694.676 714.965 696.846 724.729 685.329C738.544 669.032 726.923 655.284 709.595 650.955C687.467 645.131 653.443 640.476 651.9 611.491C650.401 583.329 671.235 570.844 696.264 568.706Z"/><path fill="#FFFFFF" d="M656.691 383.944C657.844 385.477 657.143 408.563 657.133 411.955L657.166 465.956L657.168 515.263C657.177 521.089 659.133 538.649 654.736 542.39C653.277 543.638 651.377 544.245 649.466 544.074C643.135 543.529 635.92 533.945 631.868 529.201C627.747 524.719 617.566 514.193 614.362 509.349C614.24 481.935 614.957 454.33 614.746 426.65C625.912 414.524 644.716 394.32 656.691 383.944Z"/><path fill="#FFFFFF" d="M401.796 606.186C405.105 605.993 409.096 605.87 412.412 606.195C423.086 607.433 436.064 611.901 443.14 620.259C446.514 624.245 444.824 630.555 440.558 633.183C433.158 637.741 425.616 629.718 419.353 626.611C417.302 625.593 414.71 624.921 412.485 624.496C404.095 622.966 395.441 624.843 388.438 629.711C380.76 634.964 376.036 643.179 374.387 652.249C372.561 662.101 374.764 672.274 380.503 680.487C388.038 691.068 400.477 696.769 413.158 693.988C420.652 692.345 424.028 689.955 430.114 685.449C437.246 681.22 442.004 684.326 444.972 691.377C444.399 694.391 444.314 695.866 442.359 698.366C436.462 705.907 425.472 710.329 416.295 711.772C402.492 713.942 387.396 711.51 376.024 703.086C364.383 694.353 356.731 681.314 354.784 666.892C350.382 635.431 370.5 610.139 401.796 606.186Z"/><path fill="#FFFFFF" d="M855.803 564.594C864.824 563.828 879.293 564.586 879.331 576.871C879.332 586.522 868.489 582.041 862.75 581.893C848.043 581.514 848.329 596.594 848.481 607.167C853.793 606.988 871.465 605.648 874.083 609.809C886.154 628.987 854.983 625.107 848.325 624.94C847.817 647.818 848.095 672.202 848.179 695.125C848.272 699.103 848.826 706.48 846.183 709.475C842.17 714.024 830.467 713.184 829.774 705.904C828.884 696.554 829.038 687.014 829.026 677.653L829.144 624.811C824.871 624.874 817.824 625.593 814.389 622.986C810.867 620.313 811.907 612.381 814.7 609.518C817.902 606.237 824.668 606.977 829.026 607.015C829.186 587.182 834.561 569.536 855.803 564.594Z"/><path fill="#FFFFFF" d="M909.097 576.586C926.471 575.612 920.851 594.651 921.455 607.106C928.002 606.943 945.33 605.548 948.305 609.982C961.56 629.743 926.318 625.062 921.234 624.833C921.793 643.617 919.515 661.164 922.253 680.271C926.277 708.356 959.961 678.492 953.461 703.777C946.621 715.539 921.613 714.698 912.879 705.106C900.361 691.359 902.401 672.331 902.451 655.247L902.465 624.967C897.674 625.046 889.655 625.849 885.852 622.551C882.565 619.701 882.902 612.242 886.049 609.432C889.797 606.088 898.035 607.017 902.827 607.088C902.242 600.025 901.361 587.624 903.814 581.207C904.948 578.243 906.33 577.65 909.097 576.586Z"/><path fill="#38BDF8" d="M333.641 298.65C334.481 298.956 337.179 299.832 337.226 300.92C338.199 323.673 337.1 346.582 337.686 369.376C343.039 369.24 347.142 369.196 352.527 369.48C353.466 378.546 354.039 446.788 351.71 451.261C348.403 453.046 340.53 452.5 336.47 452.461C336.557 457.074 336.924 462.885 335.705 467.265C334.426 469.141 335.239 468.661 333.512 469.277C331.698 467.239 332.445 455.615 332.5 452.082C329.086 452.186 321.702 452.819 319.056 451.083C317.332 444.636 317.285 376.715 318.653 370.5C321.27 368.216 330.022 369.149 333.53 369.314C333.437 346.498 332.952 321.295 333.641 298.65Z"/><path fill="#FFFFFF" d="M469.029 606.043C470.214 605.943 471.404 605.906 472.593 605.931C483.288 606.12 481.651 617.762 481.033 625.078C494.59 611.504 499.537 605.064 519.654 606.216C523.697 608.686 526.869 615.121 525.446 619.297C521.905 629.691 504.412 623.141 495.66 630.696C486.25 638.818 484.544 643.768 482.141 655.02C479.776 671.22 483.632 691.462 480.939 706.981C480.634 708.741 479.715 710.067 478.238 711.052C476.053 712.51 472.052 712.716 469.549 712.249C467.779 711.918 465.441 710.965 464.57 709.251C462.533 705.24 461.909 618.523 463.571 611.588C464.21 608.92 466.831 607.328 469.029 606.043Z"/><path fill="#FFFFFF" d="M478.414 447.624C481.714 449.662 495.876 465.651 499.646 469.768C509.537 480.412 519.354 491.126 529.096 501.909C522.366 508.85 515.701 515.855 509.102 522.921C503.473 528.585 494.8 540.366 486.816 542.185C483.62 542.913 479.312 539.573 479.093 535.89C478.496 525.845 478.749 515.624 478.695 505.506L478.414 447.624Z"/><path fill="#FFFFFF" d="M446.475 412.213L447.719 413.008C449.871 416.31 449.095 426.502 449.002 430.929C452.919 430.818 461.048 430.052 464.094 432.179C466.122 438.358 464.972 489.181 463.76 497.276C458.418 497.832 454.156 497.705 448.818 497.625C448.416 505.611 449.356 514.973 449.277 523.083C449.228 528.097 448.826 532.941 448.445 537.933C447.491 538.949 448.054 538.65 446.655 538.711C446.527 538.591 446.383 538.487 446.272 538.352C443.743 535.301 445.031 503.915 445.016 497.705C439.541 497.954 436.017 497.942 430.642 496.98C429.566 490.159 428.227 435.123 431.266 431.712C434.756 429.91 440.927 430.697 445.064 430.898C444.868 425.625 443.876 416.435 446.475 412.213Z"/><path fill="#FFFFFF" d="M781.164 606.065C783.137 605.944 785.269 606.033 787.18 606.559C789.017 607.064 791.202 608.12 792.057 609.941C792.907 611.752 792.862 614.814 792.957 616.834C793.38 625.891 794.273 703.367 792.856 707.172C791.902 709.733 789.57 710.997 787.193 711.975C784.871 712.215 782.55 712.409 780.234 711.988C778.692 711.708 776.495 710.811 775.792 709.293C774.823 707.2 774.691 703.573 774.588 701.24C774.212 692.73 774.187 613.584 775.567 610.278C776.581 607.85 778.886 606.975 781.164 606.065Z"/><path fill="#FFFFFF" d="M631.112 247.373L633.883 248.228C634.18 248.542 634.478 248.857 634.775 249.171C635.814 261.025 635.415 292.065 635.406 301.998C639.732 301.794 645.383 301.193 649.361 302.405C651.909 305.335 651.015 322.44 650.974 327.548C645.084 335.284 632.436 347.44 625.124 354.872L614.502 365.772C614.628 359.635 614.274 305.332 615.925 302.611C619.305 300.733 627.049 301.547 631.037 301.849C631.055 284.286 630.563 264.775 631.112 247.373Z"/><path fill="#38BDF8" d="M582.194 313.133C583.235 313.644 583.759 313.967 584.758 314.559C586.188 317.837 585.535 346.651 585.761 353.064C588.177 352.986 590.595 352.934 593.013 352.91C594.55 352.907 598.574 353.045 599.342 354.255C601.924 358.316 601.493 374.619 601.245 379.251C598.358 384.336 590.527 392.419 584.566 393.44L565.639 393.471C565.543 386.448 564.588 359.092 566.93 354.186C570.054 351.934 577.715 352.764 581.576 353.008C581.485 346.221 580.905 318.467 582.194 313.133Z"/><path fill="#FFFFFF" d="M781.509 564.73C787.958 563.305 794.362 567.299 795.92 573.716C797.479 580.134 793.619 586.62 787.235 588.311C782.986 589.437 778.46 588.176 775.404 585.017C772.348 581.857 771.24 577.292 772.506 573.083C773.773 568.874 777.217 565.678 781.509 564.73Z"/><path fill="#38BDF8" d="M377.581 484.818C379.192 487.041 378.869 531.603 378.288 537.282C377.136 539.006 377.514 538.464 375.249 539.394C373.464 528.58 373.872 499.704 374.577 488.361C375.511 487.032 376.494 486.014 377.581 484.818Z"/></svg>